<svg width="20" height="21" viewBox="0 0 20 21" fill="none" xmlns="http://www.w3.org/2000/svg">
<path d="M10 0.5C4.47715 0.5 0 4.97715 0 10.5C0 16.0228 4.47715 20.5 10 20.5C15.5228 20.5 20 16.0228 20 10.5C19.9936 4.97982 15.5202 0.506429 10 0.5Z" fill="#0A071B"/>
<path d="M15.7722 7.33337L10.068 15.0742C9.93197 15.2547 9.72912 15.373 9.50503 15.4024C9.28094 15.4319 9.05441 15.3701 8.87634 15.2309L4.80301 11.9742C4.44356 11.6866 4.38536 11.162 4.67301 10.8025C4.96066 10.4431 5.48523 10.3849 5.84468 10.6725L9.24134 13.39L14.4305 6.34754C14.6007 6.0922 14.8974 5.95103 15.2029 5.98007C15.5083 6.00912 15.7731 6.20368 15.8921 6.48652C16.0111 6.76935 15.965 7.09469 15.7722 7.33337Z" fill="white"/>
</svg>
