<svg width="626" height="508" viewBox="0 0 626 508" fill="none" xmlns="http://www.w3.org/2000/svg">
<path fill-rule="evenodd" clip-rule="evenodd" d="M313.159 328.395C303.697 328.272 294.235 328.15 284.773 328.027C288.278 330.312 291.784 332.597 295.29 334.882C320.047 351.022 344.805 367.161 369.563 383.3C363.665 387.231 357.766 391.161 351.868 395.092C345.969 399.022 340.071 402.953 334.172 406.883C336.261 409.094 338.35 411.305 340.44 413.516C342.528 415.727 344.617 417.938 346.707 420.149L342.828 422.355C340.212 423.842 337.596 425.33 334.981 426.817C331.844 428.602 328.707 430.386 325.57 432.17C321.54 434.461 317.511 436.753 313.482 439.045L305.862 443.378C305.712 443.463 305.548 443.571 305.375 443.685C304.856 444.025 304.262 444.414 303.792 444.372C303.124 444.312 302.074 443.476 301.246 442.818C300.906 442.547 300.604 442.307 300.381 442.162C297.959 440.587 295.541 439.007 293.125 437.422C285.692 432.546 278.285 427.629 270.908 422.669C252.822 410.506 234.776 398.198 217.462 384.952C209.462 378.833 202.036 372.489 195.786 364.527C188.91 355.767 183.231 346.094 178.239 336.159C174.035 327.795 170.313 319.185 167.012 310.427C166.693 309.581 166.242 308.592 165.759 307.534C164.525 304.827 163.083 301.669 163.12 299.291C163.138 298.068 163.876 296.477 164.529 295.067C164.825 294.427 165.104 293.825 165.291 293.311C166 291.362 166.709 289.412 167.418 287.462C168.128 285.512 168.838 283.563 169.547 281.612C169.782 280.966 170.09 280.27 170.408 279.551C171.075 278.043 171.785 276.438 171.954 274.995C172.16 273.238 171.643 271.039 171.167 269.012C170.946 268.07 170.733 267.166 170.606 266.36C170.556 266.05 170.522 265.599 170.482 265.085C170.364 263.552 170.203 261.466 169.5 260.942C169.052 260.609 167.712 260.636 166.714 260.656C166.322 260.665 165.984 260.671 165.772 260.655C161.758 260.347 157.745 260.038 153.732 259.729C151.658 259.57 149.583 259.41 147.509 259.251L98.535 255.486C97.0538 255.372 95.5128 255.321 93.9542 255.271C90.7837 255.167 87.5396 255.061 84.583 254.413C81.2511 253.682 79.1682 251.012 78.1721 247.889C75.1824 238.511 72.3556 228.985 70.5352 219.302C68.7745 209.944 70.4747 202.663 74.3138 194.004C77.6745 186.425 81.6434 178.909 86.1564 171.942C87.2513 170.251 87.4202 170.287 88.8365 170.59C89.1042 170.646 89.416 170.713 89.7877 170.779C99.3741 172.487 108.961 174.195 118.547 175.903C134.77 178.794 150.994 181.685 167.216 184.575C183.44 187.466 199.663 190.357 215.887 193.247C227.327 195.286 238.767 197.324 250.207 199.362C250.72 199.454 251.385 199.51 252.103 199.572C253.721 199.71 255.607 199.87 256.627 200.506C257.17 200.845 257.614 201.661 258.001 202.375C258.154 202.655 258.298 202.919 258.436 203.133L258.69 203.527C260.724 206.678 262.757 209.828 264.791 212.979C273.899 227.091 283.215 241.067 292.531 255.043C295.376 259.311 298.222 263.58 301.062 267.852C308.937 279.701 316.813 291.551 324.688 303.401C330.307 311.855 335.926 320.309 341.545 328.764C332.083 328.641 322.621 328.518 313.159 328.395ZM390.208 292.652C415.44 292.591 441.458 291.437 466.15 286.019C484.959 281.892 503.848 273.386 519.236 261.699C516.009 273.987 511.501 289.359 501.974 298.263C498.632 301.387 494.258 303.512 490.141 305.511C489.797 305.679 489.453 305.845 489.113 306.012C482.634 309.174 475.989 312.003 469.3 314.69C468.329 315.079 467.353 315.473 466.375 315.868C455.452 320.277 444.056 324.877 432.511 326.99C429.019 327.628 427.241 327.002 424.334 324.907C419.674 321.549 415.44 317.547 411.269 313.603C411.07 313.415 410.871 313.227 410.671 313.038C403.674 306.427 396.868 299.601 390.208 292.652Z" fill="#FEEBA9"/>
<g filter="url(#filter0_d_618_332)">
<path fill-rule="evenodd" clip-rule="evenodd" d="M261.646 2.3707C267.726 5.0791 270.935 12.5727 274.127 17.9917C277.958 24.4948 281.428 31.3052 283.385 38.6279C285.39 46.1311 285.668 54.358 284.779 62.0564C284.388 65.4436 283.471 68.5264 282.502 71.7669C281.466 75.2307 283.08 77.2117 285.537 79.654C290.642 84.7274 297.07 88.6201 300.859 94.8704C304.069 100.166 307.801 101.147 313.852 101.374C328.88 101.937 343.608 101.472 358.497 104.346C362.277 105.075 366.034 105.969 369.753 106.966C370.974 107.293 372.252 107.865 373.512 107.98C375.327 108.145 375.636 107.423 376.992 106.725C382.959 103.656 390.531 106.605 396.494 108.289C411.548 112.54 425.751 118.328 439.396 125.996C454.129 134.277 469.836 140.705 484.434 149.231C498.536 157.469 511.205 167.836 524.359 177.452C537.735 187.232 550.423 197.815 562.792 208.835C574.749 219.485 587.109 229.938 597.804 241.888C607.554 252.783 615.257 265.681 620.424 279.386C622.148 283.961 621.087 286.842 615.696 285.333C615.218 289.961 611.767 291.894 607.392 290.905C608.735 294.788 611.804 300.047 610.048 304.225C607.713 309.779 601.025 305.736 597.746 303.572C598.102 308.037 600.002 315.286 596.313 318.89C590.595 324.474 580.945 317.358 576.895 313.185C566.576 302.551 559.976 289.393 550.814 277.921C539.459 263.704 526.667 250.299 513.83 237.427C512.816 236.411 501.39 224.156 499.752 225.822C504.738 234.074 508.722 243.157 515.693 250.013C519.002 245.367 521.399 247.657 522.02 252.321C522.766 257.928 523.598 263.833 522.564 269.452C520.53 280.513 513.545 291.032 506.205 299.315C498.527 307.978 488.993 314.575 478.766 319.885C472.976 322.891 467.169 325.708 460.941 327.681C458.152 328.566 455.358 329.591 452.493 330.205C449.739 330.795 446.76 330.754 444.21 332.09C467.048 342.988 492.316 347.58 515.208 358.198C520.733 360.76 531.829 367.421 526.222 374.908C521.885 380.7 512.029 380.905 505.56 382.061C510.319 386.551 509.61 390.72 503.354 393.165C500.84 394.147 498.221 394.602 495.541 394.672C493.721 394.719 490.576 394.072 489.106 395.502C494.778 398.1 502.511 397.942 507.173 402.506C511.929 407.162 506.249 410.908 501.998 412.704C496.407 415.066 488.719 417.557 483.032 414.709C478.536 412.458 474.386 412.946 469.415 412.354C464.289 411.744 459.222 410.648 454.278 409.173C435.451 403.558 418.115 393.166 401.489 382.945C384.878 372.732 369.386 361.13 355.061 347.89C351.527 344.624 348.583 340.737 344.971 337.575C341.17 334.246 337.19 333.948 332.326 334.003C321.271 334.129 310.236 332.162 299.186 333.459C315.068 345.423 331.852 355.962 348.559 366.709C354.916 370.798 361.599 376.251 369.073 378.034C372.352 378.817 379.387 379.336 380.476 383.376C381.272 386.325 378.749 386.82 377.238 388.42C375.049 390.737 378.131 391.512 380.39 392.472C383.237 393.682 385.836 394.071 388.937 393.752C393.684 393.261 397.408 393.424 401.831 395.457C408.781 398.65 416.244 400.368 423.212 403.491C426.098 404.784 426.856 408.639 428.249 411.256C430.439 415.369 432.969 419.285 435.453 423.224C440.134 430.65 444.173 438.288 450.816 444.212C456.637 449.403 463.118 454.001 469.441 458.565C479.315 465.695 491.876 474.511 488.702 488.497C485.564 502.323 471.228 500.836 460.304 498.367C455.706 497.328 449.423 494.422 444.788 495.788C440.788 496.967 438.033 497.142 433.884 496.201C429.072 495.109 424.23 494.399 419.356 493.645C409.137 492.066 398.834 489.461 389.07 486.046C384.387 484.407 380.475 482.221 376.787 478.873C375.691 477.88 374.894 476.47 373.437 476.482C372.198 476.492 370.282 478.69 369.324 479.453C366.298 481.861 362.951 483.872 359.498 481.008C357.293 479.179 355.331 475.199 358.519 473.315C360.963 471.871 365.427 473.526 367.18 470.795C369.015 467.935 364.912 463.787 363.628 461.462C359.751 464.093 354.046 469.413 349.55 465.009C345.948 461.483 349.955 459.343 353.277 458.214C357.383 456.819 362.134 456.998 360.042 451.51C358.852 448.393 356.95 445.6 356.644 442.198C356.412 439.612 357.158 437.124 357.177 434.558C357.209 429.973 352.276 426.023 347.979 424.937C345.355 424.273 344.576 426.514 342.964 428.232C340.596 430.757 337.57 432.646 334.554 434.294C329.605 436.995 324.411 439.14 319.225 441.32C315.788 442.764 309.713 444.657 312.167 449.035C315.758 455.443 307.341 452.376 304.307 450.922C297.248 447.539 290.12 444.31 283.15 440.742C268.854 433.423 255.701 424.386 243.074 414.494C230.678 404.783 218.575 394.467 207.313 383.455C201.857 378.119 196.642 372.507 191.997 366.447C187.008 359.938 182.807 352.88 177.723 346.436C172.449 339.748 167.235 333.26 163.837 325.37C160.689 318.06 157.115 309.9 157.058 301.869C156.995 292.997 157.031 285.028 159.966 276.517C161.191 272.967 162.662 269.268 164.796 266.164C165.41 265.271 168.63 262.219 167.97 261.002C168.007 261.071 160.653 262.194 159.884 262.267C155.002 262.734 150.091 261.897 145.228 261.443C130.848 260.102 116.332 260.605 102.004 258.631C96.6028 257.887 90.7419 258.668 85.4695 257.297C82.9789 256.65 82.3654 255.224 80.5354 254.057C79.7001 253.524 78.8065 253.701 78.0293 252.961C77.1195 252.094 76.9226 250.843 76.5201 249.713C74.3694 243.677 70.7455 238.287 68.6162 232.24C66.2221 225.437 66.3305 218.388 66.5045 211.278C62.9485 211.561 59.2133 211.584 55.877 210.146C53.1844 218.604 41.5873 218.452 34.4583 217.81C25.5554 217.009 15.1166 216.171 10.6043 207.239C5.30152 196.742 5.65174 183.999 5.01029 172.544C4.25676 159.09 4.0422 145.435 4.70357 131.974C5.26613 120.524 7.87619 108.639 15.2825 99.5517C21.8172 91.5341 33.1223 86.8418 42.015 94.3236C48.6986 99.9482 51.6169 110.078 52.0541 118.514C52.2768 122.807 52.0762 126.663 57.3634 125.473C59.3962 125.015 61.2439 124.275 62.7428 126.359C64.0648 128.195 63.458 130.849 61.7843 132.222C60.2677 133.468 57.317 133.257 56.2781 135.108C55.2488 136.944 56.8768 139.884 58.8277 140.258C61.0492 140.683 62.7598 137.83 64.9967 139.154C67.0464 140.368 65.9759 142.636 64.6023 143.964C62.9773 145.536 61.412 145.864 62.5739 148.353C63.4646 150.263 65.2474 151.534 66.0474 153.558C68.0219 158.553 68.6737 165.73 66.478 170.753C70.2884 171.177 79.501 175.682 82.4981 172.037C83.5857 170.715 83.7154 168.773 84.8907 167.425C86.2731 165.837 88.2056 165.162 90.2516 164.906C94.6261 164.359 99.1015 165.69 103.351 166.547C110.395 167.969 117.482 169.215 124.557 170.471C138.794 173 153.162 174.76 167.363 177.476C181.534 180.188 195.559 183.616 209.574 187.03C216.924 188.821 224.239 190.832 231.643 192.383C238.563 193.831 245.774 194.899 252.214 197.963C250.941 190.09 247.387 182.856 245.173 175.246C242.894 167.419 242.254 159.605 243.54 151.545C244.719 144.16 246.465 136.982 250.235 130.455C251.759 127.816 253.436 125.188 255.632 123.059C257.193 121.545 259.391 120.287 260.625 118.482C261.842 116.7 261.584 116.287 259.392 115.467C258.173 115.01 257.066 114.872 255.911 114.232C254.848 113.644 253.934 112.576 252.685 112.373C249.804 111.903 245.591 114.694 242.952 115.688C239.349 117.043 235.626 118.264 231.78 118.676C219.158 120.031 204.19 112.713 195.537 103.847C192.649 100.888 186.021 94.0841 188.714 89.5715C190.136 87.1896 192.677 87.7556 194.811 86.6738C198.153 84.9794 196.035 82.1686 194.434 79.9378C190.074 73.8606 187.15 66.9058 184.028 60.144C180.85 53.2621 176.494 47.1098 172.923 40.4482C170.359 35.6682 167.388 30.3214 166.209 25.0019C164.77 18.5054 169.169 17.5871 174.547 16.6563C191.557 13.7113 208.304 9.7545 225.161 6.07034C231.881 4.60227 238.633 3.10989 245.397 1.85776C250.668 0.882003 256.585 0.117018 261.646 2.3707ZM410.945 407.647C402.173 408.098 393.347 410.045 393.066 420.276C394.13 439.69 406.761 454.201 420.105 467.077C423.471 470.326 426.766 473.77 430.423 476.698C432.574 478.42 434.919 479.208 437.247 480.573C437.818 480.907 438.804 482.028 439.334 482.199C440.592 482.605 440.701 482.149 441.928 482.019C444.602 481.737 445.096 483.6 447.13 485.124C450.988 488.016 457.913 487.593 462.444 488.497C466.628 489.332 483.284 495.363 482.535 486.677C481.802 478.189 472.747 474.066 466.366 470.276C457.471 464.993 448.303 459.275 440.814 452.075C433.695 445.23 429.047 435.863 424.265 427.337C421.285 422.024 420.46 417.519 419.6 411.582C419.236 409.07 419.199 408.249 416.74 407.825C414.84 407.498 412.862 407.549 410.945 407.647ZM380.426 406.237C375.359 407.878 371.531 411.94 369.009 416.535C367.718 418.886 366.978 421.258 366.551 423.887C366.007 427.234 364.757 430.808 365.692 434.173C367.39 440.279 371.844 446.946 375.342 452.185C379.276 458.077 384.384 464.691 390.591 468.303C396.566 471.78 403.781 472.706 409.322 476.998C408.825 474.638 406.611 472.896 404.874 471.424C402.34 469.279 400.125 467.149 397.972 464.594C393.212 458.946 389.256 452.829 386.72 445.861C384.264 439.109 382.857 431.509 383.17 424.311C383.319 420.886 383.908 417.246 385.388 414.122C386.376 412.033 388.129 410.257 388.886 408.061C390.619 403.026 382.953 405.418 380.426 406.237ZM269.305 239.349C262.231 240.152 255.217 241.51 248.091 242.168C233.685 243.498 218.731 244.284 205.677 251.162C186.682 261.172 164.806 283.385 171.393 306.782C179.176 334.421 195.813 359.413 216.643 378.972C229.941 391.458 244.505 402.71 259.114 413.609C273.245 424.153 289.592 431.069 304.16 440.926C305.147 426.401 314.278 413.081 325.075 403.84C330.877 398.875 336.966 394.118 343.472 390.108C346.669 388.137 349.979 386.472 353.349 384.827C355.908 383.578 358.735 381.72 361.659 381.58C361.611 379.439 356.237 378.648 354.755 378.144C349.638 376.405 344.727 373.741 339.988 371.16C329.669 365.542 320.135 358.685 310.587 351.872C305.92 348.542 301.179 345.312 296.562 341.912C292.404 338.85 288.719 334.868 284.251 332.261C279.656 329.58 274.223 329.02 269.096 328.031C262.937 326.843 256.876 325.433 250.687 324.391C240.352 322.651 230.597 316.567 221.069 312.422C217.867 311.027 212.979 309.818 210.534 307.178C208.318 304.786 208.897 301.093 211.737 299.454C216.622 296.636 224.763 300.311 229.381 302.13C237.925 305.495 246.41 308.506 255.476 310.23C267.896 312.591 279.698 317.011 292.134 319.324C305.545 321.818 318.987 324.548 332.621 325.468C329.281 318.85 323.742 313.352 319.428 307.367C314.479 300.5 309.536 293.629 304.63 286.732C295.982 274.572 286.338 262.354 279.765 248.914C277.511 244.306 275.293 238.668 269.305 239.349ZM333.527 416.523C331.558 416.837 330.072 418.805 328.734 420.106C324.591 424.131 320.535 428.117 317.162 432.837C322.382 430.633 326.638 426.793 331.67 424.268C333.483 423.358 339.885 421.33 338.595 418.795C337.87 417.371 334.976 416.291 333.527 416.523ZM357.479 400.31C352.369 403.796 347.049 406.913 341.66 409.943C345.439 411.379 349.214 413.36 352.316 415.962C353.734 417.152 356.65 420.636 358.701 419.76C360.608 418.947 361.644 414.231 362.567 412.53C364.93 408.173 368.236 404.058 371.791 400.622C366.45 397.049 362.872 396.632 357.479 400.31ZM314.345 210.548C310.255 211.686 306.197 212.929 302.11 214.076C293.95 216.366 285.612 218.28 277.091 218.28C275.931 220.413 279.252 223.891 280.273 225.518C282.951 229.788 285.238 234.369 287.667 238.79C292.816 248.161 298.433 257.169 304.493 265.976C310.616 274.875 316.146 284.194 322.416 292.985C328.485 301.494 335.161 309.76 341.734 317.885C367.347 349.539 403.044 371.368 438.129 390.978C447.963 396.475 458.209 401.317 469.099 404.319C473.596 405.559 478.183 406.608 482.757 407.532C485.831 408.151 490.946 409.541 493.776 407.553C484.89 404.033 473.245 402.676 466.066 395.865C461.622 391.649 466.496 388.504 471.027 387.72C479.794 386.204 488.881 390.022 497.486 387.545C495.186 383.326 488.575 383.527 484.553 382.445C479.467 381.075 479.279 378.506 484.121 376.76C490.079 374.61 496.949 375.776 503.159 375.38C506.19 375.187 518.894 374.681 515.057 368.861C512.037 364.282 504.685 362.998 499.874 361.309C493.123 358.94 486.565 355.241 479.69 353.406C472.965 351.61 466.113 350.506 459.388 348.61C452.37 346.631 445.459 344.432 438.79 341.463C425.931 335.738 414.009 327.966 403.15 319.044C391.961 309.849 382.152 299.313 373.127 288.014C368.378 282.069 363.859 275.952 359.24 269.909C354.777 264.073 349.732 258.512 346.16 252.07C342.21 244.944 337.091 238.441 333 231.341C330.784 227.493 328.399 223.719 326.332 219.788C324.863 216.994 323.863 212.896 321.877 210.468C320.009 208.185 316.744 209.881 314.345 210.548ZM125.431 300.84C126.801 302.092 126.573 302.608 126.31 304.198C125.769 307.457 125.173 310.656 124.922 313.963C124.062 325.272 125.658 337.001 127.421 348.172C129.181 359.317 133.411 369.614 139.931 378.832C146.248 387.764 153.874 394.879 163.919 399.262C165.644 400.014 172.474 402.775 172.032 405.322C171.7 407.238 168.154 406.154 166.88 405.881C148.822 402.013 133.519 385.691 124.393 370.498C120.615 364.208 118.185 357.814 116.099 350.862C115.793 349.846 111.42 335.462 112.897 335.282C111.622 325.322 111.241 313.212 115.95 303.993C117.71 300.55 121.832 297.555 125.431 300.84ZM93.9264 302.982C92.2785 310.491 92.8233 318.152 93.1868 325.757C93.2532 327.142 94.0451 331.413 91.7528 331.331C90.1329 331.273 88.8419 327.139 88.4445 326.078C86.0372 319.643 85.1819 312.395 86.3845 305.612C86.7642 303.464 87.3378 300.859 89.7001 300.113C91.755 299.465 94.1085 300.623 93.9264 302.982ZM515.901 268.318C514.885 268.808 514.438 269.741 514.135 270.765C506.191 277.534 496.846 284.085 487.557 288.861C479.26 293.127 469.651 294.925 460.595 296.854C439.883 301.267 419.26 303.05 398.603 297.339C407.044 305.124 414.699 315.469 425.34 320.429C430.628 322.893 436.48 321.407 441.81 319.846C448.351 317.93 454.931 315.974 461.261 313.434C473.221 308.636 486.013 303.327 496.07 295.103C500.529 291.457 504.163 286.951 507.362 282.189C509.194 279.462 510.745 276.545 512.599 273.837C513.667 272.276 516.007 270.353 515.901 268.318ZM427.65 129.867C427.347 133.718 425.078 136.953 423.077 140.114C421.716 142.264 419.065 144.857 420.322 147.295C421.815 150.19 426.572 152.039 429.038 154.018C432.688 156.949 436.107 160.151 439.469 163.405C445.5 169.244 451.745 174.904 457.647 180.868C463.256 186.534 468.698 192.306 475.771 196.17C491.302 204.652 504.975 216.503 518.546 227.772C532.382 239.261 546.048 251.338 558.055 264.759C564.479 271.941 569.819 279.824 574.399 288.286C576.754 292.64 579.279 296.897 581.638 301.249C582.682 303.174 583.861 305.044 584.811 307.019C585.516 308.486 585.975 310.862 587.279 311.949C589.86 306.226 585.834 298.657 583.5 293.502C581.906 289.978 580.34 286.441 578.766 282.907C577.661 280.429 575.365 277.436 575.239 274.671C574.932 267.946 583.595 272.784 585.971 274.94C591.852 280.275 595.243 288.297 599.406 294.916C600.385 289.646 589.888 281.507 594.233 276.914C597.68 273.271 604.034 281.805 605.963 284.116C607.286 277.6 603.896 271.225 600.352 266.01C596.404 260.196 591.84 254.668 587.163 249.433C576.231 237.197 563.738 226.306 551.377 215.548C539.082 204.845 526.423 194.579 513.818 184.245C501.576 174.211 489.151 164.178 475.469 156.145C467.797 151.641 459.75 147.872 451.919 143.668C443.717 139.265 435.941 134.109 427.65 129.867ZM320.718 115.024C320.361 115.113 318.291 115.361 318.136 115.543C317.462 116.338 318.361 118.907 319.157 119.368C316.412 121.419 313.328 123.286 309.839 123.605C312.034 125.758 316.205 129.524 315.556 132.996C314.663 137.772 308.921 134.423 306.596 132.977C302.865 130.657 299.051 128.195 296.319 124.696C294.584 122.475 293.993 120.121 292.695 117.729C291.99 116.43 292.4 116.195 290.838 116.105C289.054 116.004 286.002 117.695 284.348 118.368C281.794 119.407 279.303 120.606 276.901 121.96C272.47 124.461 268.322 127.495 264.688 131.06C257.163 138.438 252.066 148.133 251.421 158.747C256.761 158.114 261.985 155.813 266.485 152.941C269.69 150.897 272.959 148.495 273.525 154.264C273.745 156.511 273.116 161.743 271.766 163.482C270.506 165.105 269.962 163.789 268.654 164.763C267.142 165.89 267.941 167.513 267.941 169.096C267.211 168.484 266.483 167.873 265.755 167.262C264.437 168.983 265.928 168.061 266.426 169.103C266.717 169.71 264.73 171.458 264.334 171.768C263.513 172.409 263.06 171.878 262.121 172.799C261.518 173.392 260.868 174.721 260.214 175.461C256.833 179.285 261.309 185.276 263.08 189.331C264.39 192.333 265.819 195.276 267.183 198.252C268.181 200.431 268.72 203.017 270.046 205.024C272.676 209.009 278.704 206.832 282.639 206.344C287.977 205.682 293.218 205.004 298.562 204.502C301.694 204.208 305.233 202.386 301.211 200.029C297.219 197.689 283.429 197.246 283.34 191.229C283.246 184.832 292.137 183.769 296.597 184.318C303.12 185.122 307.335 186.767 311.797 191.688C310.797 182.304 304.136 174.543 302.65 165.128C302.246 162.571 301.005 146.808 307.153 153.618C310.446 157.265 313.054 162.785 315.488 167.003C319.171 173.388 322.382 180.023 325.764 186.568C328.99 192.815 333.717 198.817 335.977 205.462C337.249 209.2 339.023 217.056 343.059 218.964C345.645 220.186 350.011 218.586 352.681 218.197C354.331 217.956 355.941 217.72 357.356 216.768C358.089 216.274 358.813 214.997 359.739 214.854C362.405 214.442 363.093 218.513 362.911 220.387C362.631 223.277 361.303 224.027 358.606 224.363C363.152 226.589 356.148 233.554 354.919 236.331C354.855 236.188 354.057 234.237 353.464 234.239C352.286 234.243 357.074 243.665 357.435 244.32C359.947 248.868 363.1 252.957 366.15 257.149C367.904 259.558 370.427 265.257 373.993 264.718C375.968 264.421 380.072 260.355 381.624 263.143C383.024 265.657 378.699 268.353 378.048 270.352C376.956 273.704 381.065 277.229 383.485 278.987C389.901 283.645 398.22 284.745 405.813 286.151C404.362 284.196 401.202 283.131 401.139 280.331C401.096 278.428 402.443 277.388 401.533 275.317C400.784 273.611 398.906 272.619 398.347 270.791C397.731 268.775 398.702 266.484 399.811 264.819C404.51 257.758 415.006 260.696 421.161 263.904C420.707 264.104 420.33 264.393 420.03 264.771L419.958 264.866L419.974 264.855C420.764 264.372 424.188 265.887 424.615 266.195C425.963 267.166 427.782 269.43 428.714 270.832C431.711 275.348 432.141 280.852 430.583 285.97C449.353 285.97 467.035 280.969 483.832 272.999C487.668 271.179 491.437 270.014 495.071 267.724C498.805 265.372 502.352 262.761 506.019 260.313C509.462 258.013 509.151 256.631 506.844 253.361C504.035 249.382 501.561 245.139 498.443 241.386C497.964 242.425 497.777 244.506 496.754 245.145C495.622 245.851 494.584 244.448 493.822 244.979C493.89 244.932 491.48 248.674 491.093 247.742C492.097 250.153 488.077 248.612 487.365 248.166C487.531 250.425 485.652 252.37 484.597 249.35C481.731 251.972 474.935 249.572 478.6 245.53C480.41 243.534 482.379 242.473 483.517 239.868C484.79 236.953 485.235 233.652 485.395 230.5C485.772 223.069 481.749 219.6 476.706 214.781C473.89 212.091 470.95 209.537 468.053 206.935C465.507 204.649 463.303 201.818 460.631 199.698C458.712 198.176 457.181 197.739 455.318 199.06C454.551 199.605 454.301 200.297 453.315 200.822C452.051 201.494 450.177 201.911 448.768 202.086C441.681 202.968 433.478 200.54 426.984 197.924C425.205 197.207 424.354 196.041 422.814 195.155C421.841 194.594 421.012 194.934 419.979 194.264C417.279 192.514 417.414 189.704 419.377 187.517C423.976 182.391 430.581 187.002 435.281 182.863C441.136 177.705 431.374 170.574 427.43 167.418C424.274 164.891 421.562 164.344 417.704 163.681C416.896 163.541 411.537 161.995 413.412 164.218C409.249 164.11 407.201 164.127 403.849 166.725C402.97 167.406 401.8 168.05 401.559 169.212C401.431 169.826 402.695 169.949 402.698 169.943C402.527 170.355 401.256 171.103 401.072 171.234C403.216 171.488 402.659 175.696 402.106 175.719L402.074 175.715L402.137 175.769C403.073 176.655 400.961 178.02 400.244 178.249C398.21 178.9 396.28 177.486 394.919 176.073C391.874 172.911 389.663 167.531 389.858 163.147C390.132 156.995 394.174 153.428 397.508 148.816C400.004 145.365 396.296 143.53 393.715 141.365C390.557 138.717 386.261 135.461 385.222 131.243C384.276 127.4 386.899 126.085 390.259 127.241C394.801 128.802 398.477 132.819 402.502 135.333C406.074 137.564 410.583 142.119 414.948 142.379C414.147 139.531 410.181 139.833 408.647 137.717C406.621 134.922 409.769 133.675 412.15 133.996C413.998 134.244 419.272 138.156 419.135 133.646C419.061 131.229 415.029 130.42 413.274 129.721C404.353 126.172 395.216 123.751 385.755 122.107C382.689 121.575 381.904 121.948 380.422 124.715C379.919 125.655 378.112 129.978 377.121 127.112C375.825 129.461 375.447 131.963 372.629 132.908C369.043 134.109 364.432 132.331 361.129 130.952C358.293 129.769 355.598 128.109 353.778 125.578C352.873 124.32 352.213 122.924 351.785 121.435C351.423 120.171 351.594 118.099 350.938 116.951C349.842 115.031 347.228 115.445 345.21 115.254C340.705 114.826 336.257 114.439 331.729 114.386C327.966 114.342 324.374 114.114 320.718 115.024ZM418.661 283.711C417.22 284.227 419.78 285.951 420.625 285.747C420.279 285.189 419.704 283.338 418.661 283.711ZM419.958 264.866L419.919 264.897C419.869 264.942 419.836 264.999 419.821 265.071C419.853 265.018 419.887 264.967 419.922 264.917L419.958 264.866ZM448.776 219.592C450.081 220.688 449.555 223.223 450.448 224.781C452.837 228.953 457.144 233.067 461.202 235.587C465.573 238.3 467.641 241.82 468.712 246.735C468.934 247.75 469.602 249.16 469.276 250.212C468.97 251.194 467.867 251.521 467.528 252.396C467.372 252.796 468.022 255.894 467.943 255.903C467.567 255.949 466.467 254.39 466.473 254.398C466.037 255.479 466.189 256.707 465.014 257.285L464.871 257.349L464.889 257.363C465.182 257.589 466.518 258.697 466.2 258.941C465.755 259.28 464.668 259.048 464.114 259.246C463.239 259.558 462.607 260.337 461.765 260.7C459.507 261.672 456.903 261.372 454.519 261.029C449.498 260.308 443.848 258.513 440.218 254.795C435.822 250.291 436.865 245.625 436.469 240.573C436.023 234.905 440.113 226.314 443.398 221.92C444.519 220.42 446.765 217.907 448.776 219.592ZM87.6054 175.497C87.3216 176.168 87.6047 177.215 87.4381 177.951C87.1019 179.442 86.2363 180.748 85.4031 182.001C83.8437 184.344 82.2747 186.492 81.2108 189.136C78.5985 195.627 76.1757 202.622 74.9245 209.504C72.2408 224.279 81.2012 236.465 81.6893 250.855C85.8042 246.525 92.0617 246.317 97.6372 246.305C105.057 246.289 112.408 246.6 119.799 247.25C133.939 248.492 148.394 248.996 161.795 254.163C163.271 254.732 164.377 254.978 165.859 255.288C167.486 255.629 166.624 254.868 167.814 255.83C168.134 256.09 168.261 257.025 168.596 257.353C170.327 259.046 171.364 257.895 172.83 256.079C176.865 251.081 180.891 246.538 186.081 242.653C197.139 234.376 209.524 230.554 223.154 229.323C230.967 228.618 238.595 228.211 246.442 228.287C253.933 228.359 261.843 228.497 268.94 231.176C267.175 226.126 264.16 221.601 261.73 216.864C260.549 214.564 259.454 212.146 257.953 210.029C256.634 208.168 254.643 206.648 253.729 204.523C253.566 204.95 253.403 205.377 253.239 205.803C238.827 201.676 223.966 199.454 209.189 197.094C194.347 194.723 179.688 191.438 164.877 188.91C157.441 187.641 149.977 186.879 142.487 186.028C135.277 185.21 128.325 183.61 121.216 182.25C114.016 180.873 107.009 179.204 99.9295 177.307C96.9611 176.512 94.1512 175.415 91.2625 174.458C88.9584 173.695 88.4349 173.531 87.6054 175.497ZM406.311 201.693C406.741 203.459 405.365 205.738 404.924 207.415C404.425 209.317 403.34 210.079 402.774 211.809C402.283 213.312 403.169 221.279 399.325 218.9C399.443 219.471 400.076 220.256 400.141 220.766C400.223 221.4 399.606 222.372 399.785 222.919C399.946 223.412 401.635 224.856 402.044 225.679C403.658 228.913 404.798 232.635 405.594 236.158C406.423 239.831 407.43 244.919 404.387 247.454C403.656 248.063 403.019 248.226 402.268 248.958C402.18 249.635 401.871 250.194 401.341 250.635C401.051 250.717 400.817 250.645 400.642 250.419C399.715 250.921 400.024 248.81 398.934 250.862C398.671 251.357 399.145 253.056 398.91 252.881C398.483 252.566 397.193 251.221 396.775 251.196C395.839 252.469 395.861 251.173 394.873 251.354C394.834 251.882 394.548 252.172 394.014 252.224C393.597 252.129 393.181 252.033 392.766 251.937C390.249 251.952 386.532 250.896 384.116 250.229C379.504 248.957 376.214 245.785 375.213 240.979C373.13 230.968 381.553 218.453 387.576 211.174C389.633 208.687 404.08 192.547 406.311 201.693ZM446.53 233.944C446.465 234.785 446.725 236.042 445.78 236.135C445.823 235.186 445.424 233.971 446.53 233.944ZM380.91 232.519C381.34 234.943 381.438 233.559 380.463 235.226C380.135 234.244 380.284 233.342 380.91 232.519ZM450.74 229.393C451.114 229.859 452.548 231.117 451.313 231.439C450.233 231.719 450.694 229.968 450.74 229.393ZM398.783 212.59C398.292 215.199 399.771 214.574 401.807 214.1C400.799 213.597 399.791 213.094 398.783 212.59ZM21.4663 107.372C11.7147 115.736 11.4205 130.361 11.7279 142.134C12.146 158.13 13.117 174.17 14.6639 190.096C15.3629 197.291 17.4163 200.956 24.5224 203.367C32.2206 205.979 40.5123 205.473 48.4973 205.01C46.9704 193.144 43.9821 177.532 55.8903 169.635C56.98 168.913 57.9769 168.379 59.3033 168.31C60.1792 168.265 61.4355 169.059 62.2672 168.653C63.949 167.831 62.9868 165.504 62.4361 164.187C60.7617 160.184 57.5662 156.98 54.9738 153.583C51.7179 149.319 48.9205 149.434 44.0588 149.96C42.1204 150.171 34.4952 151.039 35.9963 146.903C37.0868 143.895 43.0774 144.648 45.5046 143.952C47.3442 143.423 47.7195 143.19 47.6406 141.311C47.516 138.374 45.8312 137.577 43.2175 137.657C39.8554 137.76 34.0344 139.546 31.2348 136.903C27.2372 133.128 33.1658 130.486 36.1718 129.973C39.3186 129.436 43.5272 129.925 44.2534 126.031C44.945 122.318 42.9852 117.824 41.4539 114.554C39.9719 111.391 37.9465 107.359 34.8542 105.46C30.4909 102.781 25.1078 104.248 21.4663 107.372ZM59.3151 177.251C55.3543 178.139 53.0753 183.294 52.6152 186.898C52.1706 190.385 52.4736 195.361 55.0313 198.041C58.3883 201.557 64.2403 201.32 67.8531 204.621C69.4537 196.679 72.4133 189.036 76.3011 181.94C73.231 181.095 70.239 180.002 67.2116 179.021C64.9967 178.304 61.6936 176.717 59.3151 177.251ZM313.561 194.36C314.45 195.119 314.731 195.349 314.96 196.541C312.851 196.675 313.486 195.997 313.561 194.36ZM334.476 137.87C337.771 137.956 339.312 139.022 341.957 140.601C343.842 141.726 346.128 140.515 346.128 143.374C351.508 139.147 361.541 150.061 365.313 152.919C369.291 155.934 373.209 159.484 373.649 164.864C373.779 166.458 373.449 168.091 373.689 169.677C373.869 170.873 374.626 172.068 374.497 173.307C374.345 174.744 373.13 175.584 372.849 176.935C372.739 177.47 373.118 178.545 372.883 178.977C370.471 183.397 367.38 187.023 362.089 187.46C357.48 187.841 352.388 186.197 349.029 182.982C346.048 180.131 344.272 175.858 343.5 171.862C343.365 171.171 343.62 169.587 343.392 169.002C343.061 168.15 342.562 168.136 342.152 167.447C341.063 165.619 339.5 162.174 340.913 160.166C337.429 160.952 334.78 153.49 333.48 151.313C332.504 149.684 330.154 148.408 329.501 146.823C328.606 144.649 331.822 143.716 330.708 142.201C330.112 141.391 326.91 141.943 327.224 139.912C327.516 138.033 333.217 137.837 334.476 137.87ZM401.977 175.643C402.009 175.683 402.041 175.707 402.074 175.716V175.715L402.063 175.705L401.977 175.643ZM392.778 159.371C393.08 159.111 394.699 157.473 394.89 158.702C395.045 159.708 393.262 159.371 392.778 159.371ZM241.684 31.7496C238.17 31.9641 235.038 35.7559 232.421 37.7464C228.512 40.7179 223.894 42.8994 219.288 44.5488C213.926 46.4671 208.415 48.1747 202.91 49.6302C197.327 51.1071 191.511 51.4093 185.945 52.9437C188.699 57.9817 191.453 63.0204 194.208 68.0591C195.416 66.3972 195.003 64.5209 196.991 63.3262C198.37 62.4971 200.367 62.3837 201.926 62.0771C206.267 61.2229 211.031 60.4668 215.438 61.3504C218.281 61.9208 221.445 64.1089 218.752 67.1644C217.053 69.0924 213.395 68.5971 213.096 71.6593C212.81 74.5932 215.807 77.1137 215.113 80.1987C214.138 84.535 209.803 83.2365 207.876 80.433C206.157 77.9332 206.809 73.4877 204.156 71.6851C202.573 70.6098 198.341 70.2222 196.637 71.1426C199.769 76.922 205.858 84.0479 202.287 90.9571C201.189 93.0796 198.791 93.8888 200.398 95.9744C202.252 98.3799 207.6 100.362 210.448 99.6254C213.114 98.9363 216.169 95.9339 219.167 97.4196C221.998 98.8221 219.992 101.203 220.242 103.406C220.996 110.041 234.609 106.257 238.305 105.376C242.013 104.493 245.882 102.357 249.709 102.269C253.319 102.186 256.671 103.925 259.531 105.962C261.673 107.488 265.237 111.951 267.954 112.1C270.68 112.249 274.545 108.215 276.95 106.994C281.267 104.802 285.985 104.168 290.559 102.707C291.285 102.476 294.458 101.824 294.515 100.765C294.569 99.747 290.819 97.5206 290.182 97.0342C284.363 92.5924 280.1 86.4689 274.046 82.3094C271.347 80.4544 268.431 79.147 265.277 78.312C263.527 77.8492 258.761 77.2249 258.636 74.7303C267.033 73.3241 267.242 62.8524 263.701 56.9145C261.449 53.1382 257.955 51.3422 253.541 52.1544C247.146 53.3321 245.976 58.0112 244.512 63.5636C239.286 60.7218 233.589 53.7625 233.278 47.6301C232.934 40.8123 240.258 37.8806 241.684 31.7496ZM397.694 77.5691C406.505 79.203 415.124 81.3808 423.608 84.2749C428.834 86.0576 436.438 87.5906 440.958 90.935C442.277 91.9122 443.939 94.0612 442.735 95.7784C441.697 97.259 439.157 96.8603 437.656 96.6296C430.835 95.5809 424.152 92.7273 417.403 91.1885C399.467 87.0997 381.066 85.1784 362.741 83.8695C357.688 83.5092 352.63 83.1974 347.577 82.8422C343.368 82.5474 338.743 82.6808 334.622 81.7286C331.372 80.9776 330.563 78.5906 332.997 75.9028C335.369 73.2836 339.349 73.6919 342.528 73.2136C361.022 72.0064 379.53 74.2004 397.694 77.5691ZM367.042 56.1753C373.038 58.2404 366.031 59.225 363.408 59.0083C362.519 58.9353 350.792 57.7724 350.792 58.1328C348.451 58.1328 342.258 59.9221 340.577 57.5564C338.771 55.0161 346.501 54.1243 348.063 54.0116C354.07 53.579 361.269 54.1877 367.042 56.1753Z" fill="#0A071B"/>
</g>
<defs>
<filter id="filter0_d_618_332" x="0.308594" y="0.901367" width="624.875" height="507.083" filterUnits="userSpaceOnUse" color-interpolation-filters="sRGB">
<feFlood flood-opacity="0" result="BackgroundImageFix"/>
<feColorMatrix in="SourceAlpha" type="matrix" values="0 0 0 0 0 0 0 0 0 0 0 0 0 0 0 0 0 0 127 0" result="hardAlpha"/>
<feOffset dy="4"/>
<feGaussianBlur stdDeviation="2"/>
<feComposite in2="hardAlpha" operator="out"/>
<feColorMatrix type="matrix" values="0 0 0 0 0 0 0 0 0 0 0 0 0 0 0 0 0 0 0.25 0"/>
<feBlend mode="normal" in2="BackgroundImageFix" result="effect1_dropShadow_618_332"/>
<feBlend mode="normal" in="SourceGraphic" in2="effect1_dropShadow_618_332" result="shape"/>
</filter>
</defs>
</svg>
